# Blender v2.79 (sub 0) OBJ File: 'crossbow.blend'
# www.blender.org
mtllib crossbow.mtl
o Cube
v -0.059752 -0.217912 -0.270474
v 0.060247 -0.217912 -0.270474
v 0.060246 -0.217912 0.929527
v -0.059755 -0.217912 0.929524
v -0.059750 -0.097912 -0.270477
v 0.060251 -0.097912 -0.270470
v 0.060245 -0.097912 0.929528
v -0.059753 -0.097912 0.929526
v 0.060246 -0.217912 0.989527
v -0.059755 -0.217912 0.989524
v 0.060245 -0.097912 0.989528
v -0.059753 -0.097912 0.989526
v 0.024246 -0.217912 0.932527
v -0.023754 -0.217912 0.932524
v 0.024246 -0.217912 0.986527
v -0.023754 -0.217912 0.986524
v -0.059752 -0.217912 -0.330474
v 0.060247 -0.217912 -0.330474
v -0.059750 -0.097912 -0.330477
v 0.060251 -0.097912 -0.330470
v -0.359752 -0.157912 -0.090474
v -0.359749 -0.097912 -0.090477
v -0.359752 -0.157912 -0.150474
v -0.359749 -0.097912 -0.150477
v 0.360247 -0.157912 -0.090474
v 0.360251 -0.097912 -0.090470
v 0.360247 -0.157912 -0.150474
v 0.360251 -0.097912 -0.150470
v 0.029046 -0.397912 1.040917
v -0.028555 -0.397912 1.040914
v 0.029046 -0.397912 1.118137
v -0.028555 -0.397912 1.118134
v 0.000251 -0.097912 -0.270474
v 0.000251 -0.097912 -0.330473
v 0.060251 -0.097912 -0.300470
v -0.059750 -0.097912 -0.300477
v 0.000251 -0.097912 -0.300474
v 0.030251 -0.097912 -0.270472
v 0.030251 -0.097912 -0.330472
v 0.060251 -0.097912 -0.315470
v -0.059750 -0.097912 -0.285477
v -0.029749 -0.097912 -0.270475
v -0.029749 -0.097912 -0.330475
v 0.060251 -0.097912 -0.285470
v -0.059750 -0.097912 -0.315477
v 0.000251 -0.097912 -0.315473
v 0.000251 -0.097912 -0.285474
v -0.029749 -0.097912 -0.300475
v 0.030251 -0.097912 -0.300472
v 0.030251 -0.097912 -0.285472
v -0.029749 -0.097912 -0.285475
v -0.029749 -0.097912 -0.315475
v 0.030251 -0.097912 -0.315472
v 0.030251 0.005030 -0.330472
v 0.060251 0.005030 -0.330470
v 0.060251 0.005030 -0.315470
v -0.059750 0.005030 -0.330477
v -0.029749 0.005030 -0.330475
v -0.059750 0.005030 -0.315477
v -0.029749 0.005030 -0.315475
v 0.030251 0.005030 -0.315472
v 0.000246 -0.097912 0.929527
v 0.000246 -0.097912 0.989527
v 0.060245 -0.097912 0.959528
v -0.059753 -0.097912 0.959526
v 0.000246 -0.097912 0.959527
v -0.029753 -0.097912 0.929526
v -0.029753 -0.097912 0.989526
v 0.060245 -0.097912 0.974528
v -0.059753 -0.097912 0.974526
v 0.030246 -0.097912 0.929528
v 0.030246 -0.097912 0.989528
v 0.060245 -0.097912 0.944528
v -0.059753 -0.097912 0.944526
v 0.000246 -0.097912 0.974527
v 0.000246 -0.097912 0.944527
v 0.030246 -0.097912 0.959528
v -0.029753 -0.097912 0.959526
v -0.029753 -0.097912 0.944526
v 0.030246 -0.097912 0.944528
v 0.030246 -0.097912 0.974528
v -0.029753 -0.097912 0.974526
v -0.029753 -0.037912 0.989526
v -0.059753 -0.037912 0.989526
v 0.060245 -0.037912 0.974528
v 0.060245 -0.037912 0.989528
v -0.059753 -0.037912 0.974526
v 0.030246 -0.037912 0.989528
v 0.030246 -0.037912 0.974528
v -0.029753 -0.037912 0.974526
vn 0.0000 -1.0000 0.0000
vn 0.0000 1.0000 -0.0000
vn -1.0000 0.0000 0.0000
vn 1.0000 -0.0000 0.0000
vn -0.0000 -0.0000 1.0000
vn -0.0000 0.5902 0.8072
vn 0.0000 0.0000 -1.0000
vn 0.5145 0.0000 0.8575
vn -0.1961 -0.9806 0.0000
vn -0.5145 -0.0000 -0.8575
vn 1.0000 -0.0001 0.0000
vn 0.5145 0.0000 -0.8575
vn -0.5145 -0.0000 0.8575
vn 0.1961 -0.9806 0.0000
vn 0.9996 0.0267 0.0000
vn 0.0001 -0.5159 -0.8567
vn -0.9996 0.0267 0.0000
vn -0.0001 0.0000 1.0000
vn 0.0001 0.0000 -1.0000
usemtl Material
s off
f 1//1 2//1 3//1 4//1
f 5//2 8//2 67//2 62//2 71//2 7//2 6//2 38//2 33//2 42//2
f 39//3 53//3 61//3 54//3
f 2//4 6//4 7//4 3//4
f 3//4 7//4 73//4 64//4 69//4 11//4 9//4
f 5//3 1//3 4//3 8//3
f 9//5 11//5 72//5 63//5 68//5 12//5 10//5
f 81//3 72//3 88//3 89//3
f 8//3 4//3 10//3 12//3 70//3 65//3 74//3
f 10//1 4//1 14//1 16//1
f 15//6 16//6 32//6 31//6
f 3//1 9//1 15//1 13//1
f 4//1 3//1 13//1 14//1
f 9//1 10//1 16//1 15//1
f 17//7 19//7 43//7 34//7 39//7 20//7 18//7
f 20//2 40//2 35//2 44//2 6//2 26//2 28//2
f 1//8 5//8 22//8 21//8
f 2//1 1//1 17//1 18//1
f 21//3 22//3 24//3 23//3
f 17//9 1//9 21//9 23//9
f 5//2 41//2 36//2 45//2 19//2 24//2 22//2
f 19//10 17//10 23//10 24//10
f 26//11 25//11 27//11 28//11
f 18//12 20//12 28//12 27//12
f 6//13 2//13 25//13 26//13
f 2//14 18//14 27//14 25//14
f 30//1 29//1 31//1 32//1
f 13//15 15//15 31//15 29//15
f 14//16 13//16 29//16 30//16
f 16//17 14//17 30//17 32//17
f 52//2 46//2 34//2 43//2
f 51//2 47//2 37//2 48//2
f 50//2 44//2 35//2 49//2
f 47//2 50//2 49//2 37//2
f 33//2 38//2 50//2 47//2
f 38//2 6//2 44//2 50//2
f 41//2 51//2 48//2 36//2
f 5//2 42//2 51//2 41//2
f 42//2 33//2 47//2 51//2
f 40//4 20//4 55//4 56//4
f 36//2 48//2 52//2 45//2
f 48//2 37//2 46//2 52//2
f 46//2 53//2 39//2 34//2
f 37//2 49//2 53//2 46//2
f 49//2 35//2 40//2 53//2
f 61//2 56//2 55//2 54//2
f 59//2 60//2 58//2 57//2
f 45//18 52//18 60//18 59//18
f 52//4 43//4 58//4 60//4
f 20//19 39//19 54//19 55//19
f 19//3 45//3 59//3 57//3
f 53//18 40//18 56//18 61//18
f 43//19 19//19 57//19 58//19
f 81//2 75//2 63//2 72//2
f 80//2 76//2 66//2 77//2
f 79//2 74//2 65//2 78//2
f 76//2 79//2 78//2 66//2
f 62//2 67//2 79//2 76//2
f 67//2 8//2 74//2 79//2
f 73//2 80//2 77//2 64//2
f 7//2 71//2 80//2 73//2
f 71//2 62//2 76//2 80//2
f 69//7 81//7 89//7 85//7
f 64//2 77//2 81//2 69//2
f 77//2 66//2 75//2 81//2
f 75//2 82//2 68//2 63//2
f 66//2 78//2 82//2 75//2
f 78//2 65//2 70//2 82//2
f 90//2 87//2 84//2 83//2
f 85//2 89//2 88//2 86//2
f 82//7 70//7 87//7 90//7
f 12//5 68//5 83//5 84//5
f 72//5 11//5 86//5 88//5
f 70//3 12//3 84//3 87//3
f 11//4 69//4 85//4 86//4
f 68//4 82//4 90//4 83//4
