# Blender v2.79 (sub 0) OBJ File: 'musket_pistol.blend'
# www.blender.org
mtllib musket_pistol.mtl
o Plane
v -0.075854 -0.118049 0.104207
v 0.104146 -0.118049 0.104207
v -0.075854 -0.058049 0.104207
v 0.104146 -0.058049 0.134207
v 0.014146 0.001951 0.104207
v 0.014146 -0.178049 0.104207
v -0.075854 -0.058049 -0.615793
v -0.075854 -0.118049 -0.615793
v 0.014146 -0.178049 -0.615793
v 0.104146 -0.118049 -0.615793
v 0.104146 -0.058049 -0.615793
v 0.014146 0.001951 -0.615793
v -0.075854 -0.058049 0.164207
v -0.075854 -0.118049 0.224207
v 0.014146 -0.178049 0.284207
v 0.104146 -0.118049 0.224207
v 0.104146 -0.058049 0.164207
v 0.014146 0.001951 0.164207
v 0.134146 -0.118049 0.104207
v 0.134146 -0.058049 0.134207
v 0.134146 -0.118049 0.164207
v 0.134146 -0.058049 0.164207
v 0.104146 0.091951 0.164207
v 0.104146 0.091951 0.134207
v 0.134146 0.091951 0.164207
v 0.134146 0.091951 0.134207
v 0.104146 -0.058049 -0.015793
v 0.134146 -0.058049 -0.015793
v 0.104146 -0.058049 -0.075793
v 0.134146 -0.058049 -0.075793
v 0.104146 -0.118049 -0.015793
v 0.134146 -0.118049 -0.015793
v 0.104146 -0.118049 -0.075793
v 0.134146 -0.118049 -0.075793
v -0.162391 -0.031719 -0.767690
v -0.162391 -0.144379 -0.767690
v 0.014146 -0.262071 -0.767690
v 0.190684 -0.144379 -0.767690
v 0.190684 -0.031719 -0.767690
v 0.014146 0.085973 -0.767690
v -0.174854 -0.025049 -0.765793
v -0.174854 -0.151049 -0.765793
v 0.014146 -0.277049 -0.765793
v 0.203146 -0.151049 -0.765793
v 0.203146 -0.025049 -0.765793
v 0.014146 0.100951 -0.765793
v -0.153678 -0.034499 -0.750013
v -0.153678 -0.141599 -0.750013
v 0.014146 -0.253481 -0.750013
v 0.181970 -0.141599 -0.750013
v 0.181970 -0.034499 -0.750013
v 0.014146 0.077384 -0.750013
v -0.067587 -0.061969 -0.686098
v -0.067587 -0.114129 -0.686098
v 0.014146 -0.168618 -0.686098
v 0.095880 -0.114129 -0.686098
v 0.095880 -0.061969 -0.686098
v 0.014146 -0.007480 -0.686098
v -0.067587 -0.061969 -0.243138
v -0.067587 -0.114129 -0.243138
v 0.014146 -0.168618 -0.243138
v 0.095880 -0.114129 -0.243138
v 0.095880 -0.061969 -0.243138
v 0.014146 -0.007480 -0.243138
v 0.014146 -0.238049 0.104207
v 0.104146 -0.238049 0.134207
v -0.075854 -0.238049 0.134207
v 0.014146 -0.238049 0.284207
v 0.104146 -0.238049 0.224207
v -0.075854 -0.238049 0.224207
v 0.014146 -0.448049 0.224207
v 0.104146 -0.448049 0.254207
v -0.075854 -0.448049 0.254207
v 0.014146 -0.448049 0.404207
v 0.104146 -0.448049 0.344207
v -0.075854 -0.448049 0.344207
v 0.014146 -0.478049 0.240207
v 0.086146 -0.478049 0.264207
v -0.057854 -0.478049 0.264207
v 0.014146 -0.478049 0.384207
v 0.086146 -0.478049 0.336207
v -0.057854 -0.478049 0.336207
vn 1.0000 0.0000 0.0000
vn 0.4862 -0.7293 0.4813
vn -0.5547 -0.8321 0.0000
vn -0.5547 0.8321 0.0000
vn 0.5547 -0.8321 0.0000
vn 0.5547 0.8321 0.0000
vn -1.0000 0.0000 0.0000
vn 0.0000 0.6000 0.8000
vn 0.5547 0.0000 0.8321
vn 0.0000 -1.0000 0.0000
vn 0.0000 0.4472 -0.8944
vn 0.6667 0.3333 0.6667
vn 0.0000 1.0000 0.0000
vn 0.0000 0.0000 1.0000
vn 0.0000 0.0000 -1.0000
vn -0.5143 -0.7714 -0.3748
vn 0.4862 0.7293 0.4813
vn 0.8346 0.0000 0.5508
vn -0.8346 0.0000 0.5508
vn -0.4862 -0.7293 0.4813
vn -0.4862 0.7293 0.4813
vn -0.1504 0.0000 -0.9886
vn 0.0834 -0.1252 -0.9886
vn 0.1504 0.0000 -0.9886
vn -0.0834 0.1252 -0.9886
vn 0.0834 0.1252 -0.9886
vn -0.0834 -0.1252 -0.9886
vn 0.3722 -0.5584 -0.7414
vn -0.8969 0.0000 -0.4421
vn 0.8969 0.0000 -0.4421
vn 0.5143 0.7714 -0.3748
vn 0.5143 -0.7714 -0.3748
vn -0.5143 0.7714 -0.3748
vn -0.3722 0.5584 -0.7414
vn -0.3722 -0.5584 -0.7414
vn -0.5961 0.0000 -0.8029
vn 0.5961 0.0000 -0.8029
vn 0.3722 0.5584 -0.7414
vn 0.2780 -0.4766 -0.8340
vn -0.2141 -0.1606 -0.9635
vn 0.2141 -0.1606 -0.9635
vn -0.5547 0.0000 0.8321
vn -0.5010 0.4294 0.7514
vn -0.2780 -0.4766 -0.8340
vn 0.5010 0.4294 0.7514
vn -0.8575 -0.5145 0.0000
vn 0.4851 -0.4851 0.7276
vn 0.2822 -0.4515 -0.8465
vn 0.8575 -0.5145 0.0000
vn -0.4851 -0.4851 0.7276
vn -0.2822 -0.4515 -0.8465
usemtl None
s off
f 2//1 16//1 69//1 66//1
f 10//2 9//2 43//2 44//2
f 6//3 1//3 8//3 9//3
f 3//4 5//4 12//4 7//4
f 2//5 6//5 9//5 10//5
f 5//6 4//6 11//6 12//6
f 4//1 2//1 10//1 11//1
f 1//7 3//7 7//7 8//7
f 13//8 14//8 15//8 16//8 17//8 18//8
f 5//4 3//4 13//4 18//4
f 16//9 15//9 68//9 69//9
f 4//6 5//6 18//6 17//6
f 4//7 17//7 23//7 24//7
f 3//7 1//7 14//7 13//7
f 19//1 20//1 22//1 21//1
f 16//10 2//10 19//10 21//10
f 2//11 4//11 20//11 19//11
f 17//12 16//12 21//12 22//12
f 24//13 23//13 25//13 26//13
f 17//14 22//14 25//14 23//14
f 20//15 4//15 24//15 26//15
f 22//1 20//1 26//1 25//1
f 27//13 28//13 30//13 29//13
f 31//10 33//10 34//10 32//10
f 27//7 29//7 33//7 31//7
f 30//1 28//1 32//1 34//1
f 29//15 30//15 34//15 33//15
f 28//14 27//14 31//14 32//14
f 40//16 39//16 51//16 52//16
f 12//17 11//17 45//17 46//17
f 11//18 10//18 44//18 45//18
f 8//19 7//19 41//19 42//19
f 9//20 8//20 42//20 43//20
f 7//21 12//21 46//21 41//21
f 35//22 36//22 42//22 41//22
f 37//23 38//23 44//23 43//23
f 38//24 39//24 45//24 44//24
f 40//25 35//25 41//25 46//25
f 39//26 40//26 46//26 45//26
f 36//27 37//27 43//27 42//27
f 47//28 52//28 58//28 53//28
f 39//29 38//29 50//29 51//29
f 36//30 35//30 47//30 48//30
f 37//31 36//31 48//31 49//31
f 35//32 40//32 52//32 47//32
f 38//33 37//33 49//33 50//33
f 57//7 56//7 62//7 63//7
f 50//34 49//34 55//34 56//34
f 52//35 51//35 57//35 58//35
f 51//36 50//36 56//36 57//36
f 48//37 47//37 53//37 54//37
f 49//38 48//38 54//38 55//38
f 59//15 64//15 63//15 62//15 61//15 60//15
f 54//1 53//1 59//1 60//1
f 55//6 54//6 60//6 61//6
f 53//5 58//5 64//5 59//5
f 56//4 55//4 61//4 62//4
f 58//3 57//3 63//3 64//3
f 70//7 67//7 73//7 76//7
f 65//39 66//39 72//39 71//39
f 1//40 6//40 65//40 67//40
f 14//7 1//7 67//7 70//7
f 6//41 2//41 66//41 65//41
f 15//42 14//42 70//42 68//42
f 68//43 70//43 76//43 74//43
f 67//44 65//44 71//44 73//44
f 66//1 69//1 75//1 72//1
f 69//45 68//45 74//45 75//45
f 76//46 73//46 79//46 82//46
f 77//10 78//10 81//10 80//10 82//10 79//10
f 75//47 74//47 80//47 81//47
f 71//48 72//48 78//48 77//48
f 72//49 75//49 81//49 78//49
f 74//50 76//50 82//50 80//50
f 73//51 71//51 77//51 79//51
