# Blender v2.79 (sub 0) OBJ File: 'spear.blend'
# www.blender.org
mtllib spear.mtl
o Plane
v 0.337706 -0.049612 3.600695
v 0.402324 -0.049612 3.600695
v 0.337706 -0.114222 3.599642
v 0.402324 -0.114222 3.599642
v 0.321552 -0.081917 3.600168
v 0.370015 -0.033460 3.600958
v 0.418479 -0.081917 3.600168
v 0.370015 -0.130375 3.599379
v 0.357774 -0.022715 0.718262
v 0.382256 -0.022715 0.718262
v 0.357774 -0.047194 0.717863
v 0.382256 -0.047194 0.717863
v 0.351654 -0.034954 0.718063
v 0.370015 -0.016595 0.718362
v 0.388377 -0.034954 0.718063
v 0.370015 -0.053313 0.717764
v 0.353861 -0.066857 3.667458
v 0.386170 -0.066857 3.667458
v 0.353861 -0.099162 3.666931
v 0.386170 -0.099162 3.666931
v 0.345783 -0.083009 3.667194
v 0.370015 -0.058781 3.667589
v 0.394247 -0.083009 3.667194
v 0.370015 -0.107238 3.666800
v 0.321552 -0.034954 0.718063
v 0.337706 -0.002649 0.718589
v 0.370015 0.013503 0.718852
v 0.402324 -0.002649 0.718589
v 0.418479 -0.034954 0.718063
v 0.402324 -0.067259 0.717536
v 0.370015 -0.083412 0.717273
v 0.337706 -0.067259 0.717536
v 0.345533 -0.024617 0.684709
v 0.394497 -0.024617 0.684709
v 0.345533 -0.044200 0.684390
v 0.394497 -0.044200 0.684390
v 0.333292 -0.034408 0.684550
v 0.370015 -0.019721 0.684789
v 0.406738 -0.034408 0.684550
v 0.370015 -0.049095 0.684311
v 0.335741 -0.019062 0.584235
v 0.404290 -0.019062 0.584235
v 0.335741 -0.046478 0.583788
v 0.404290 -0.046478 0.583788
v 0.334027 -0.031132 0.483473
v 0.370015 -0.012208 0.584346
v 0.406004 -0.031132 0.483473
v 0.370015 -0.053332 0.583676
v 0.370015 -0.029493 0.382935
vn 0.4472 -0.8943 -0.0146
vn -0.4472 0.8943 0.0146
vn -0.4472 -0.8943 -0.0146
vn 0.4472 0.8943 0.0146
vn 0.8944 0.4472 0.0073
vn -0.8944 -0.4472 -0.0073
vn 0.8944 -0.4472 -0.0073
vn -0.8944 0.4472 0.0073
vn 0.4255 -0.8560 0.2937
vn -0.4255 0.8459 0.3215
vn -0.4255 -0.8560 0.2937
vn 0.4255 0.8459 0.3215
vn 0.8510 0.4205 0.3145
vn -0.8511 -0.4305 0.3007
vn 0.8511 -0.4305 0.3007
vn -0.8510 0.4205 0.3145
vn -0.0000 -0.0163 0.9999
vn 0.7301 -0.6134 0.3011
vn 0.0000 0.0163 -0.9999
vn 0.9146 0.4025 0.0393
vn -0.7301 0.6033 0.3210
vn 0.2872 -0.9565 -0.0506
vn -0.2872 0.9577 -0.0194
vn -0.2872 -0.9565 -0.0506
vn 0.2872 0.9577 -0.0194
vn 0.7301 0.6033 0.3210
vn -0.7301 -0.6134 0.3011
vn -0.1951 -0.9739 -0.1157
vn -0.9146 -0.4036 0.0261
vn 0.9146 -0.4036 0.0261
vn -0.9146 0.4025 0.0393
vn 0.1958 -0.9798 0.0412
vn -0.1958 0.9779 0.0731
vn -0.1958 -0.9798 0.0412
vn 0.1958 0.9779 0.0731
vn 0.1951 0.9772 -0.0839
vn 0.3392 0.9347 -0.1062
vn -0.3392 -0.9307 -0.1366
vn 0.3392 -0.9307 -0.1366
vn -0.3392 0.9347 -0.1062
vn 0.1951 -0.9739 -0.1157
vn -0.1951 0.9772 -0.0839
usemtl None
s off
f 4//1 8//1 31//1 30//1
f 1//2 6//2 27//2 26//2
f 8//3 3//3 32//3 31//3
f 6//4 2//4 28//4 27//4
f 2//5 7//5 29//5 28//5
f 3//6 5//6 25//6 32//6
f 7//7 4//7 30//7 29//7
f 5//8 1//8 26//8 25//8
f 8//9 4//9 20//9 24//9
f 6//10 1//10 17//10 22//10
f 3//11 8//11 24//11 19//11
f 2//12 6//12 22//12 18//12
f 7//13 2//13 18//13 23//13
f 5//14 3//14 19//14 21//14
f 4//15 7//15 23//15 20//15
f 1//16 5//16 21//16 17//16
f 21//17 19//17 24//17 20//17 23//17 18//17 22//17 17//17
f 15//18 12//18 36//18 39//18
f 9//19 13//19 25//19 26//19
f 10//19 14//19 27//19 28//19
f 12//19 15//19 29//19 30//19
f 11//19 16//19 31//19 32//19
f 13//19 11//19 32//19 25//19
f 14//19 9//19 26//19 27//19
f 15//19 10//19 28//19 29//19
f 16//19 12//19 30//19 31//19
f 34//20 39//20 47//20 42//20
f 13//21 9//21 33//21 37//21
f 12//22 16//22 40//22 36//22
f 9//23 14//23 38//23 33//23
f 16//24 11//24 35//24 40//24
f 14//25 10//25 34//25 38//25
f 10//26 15//26 39//26 34//26
f 11//27 13//27 37//27 35//27
f 48//28 43//28 49//28
f 35//29 37//29 45//29 43//29
f 39//30 36//30 44//30 47//30
f 37//31 33//31 41//31 45//31
f 36//32 40//32 48//32 44//32
f 33//33 38//33 46//33 41//33
f 40//34 35//34 43//34 48//34
f 38//35 34//35 42//35 46//35
f 46//36 42//36 49//36
f 42//37 47//37 49//37
f 43//38 45//38 49//38
f 47//39 44//39 49//39
f 45//40 41//40 49//40
f 44//41 48//41 49//41
f 41//42 46//42 49//42
