# Blender v2.79 (sub 0) OBJ File: 'claw.blend'
# www.blender.org
mtllib claw.mtl
o Cube_Cube.001
v 1.480603 -0.383927 -0.439217
v 1.624275 -0.382681 -0.232091
v 0.927290 -0.420463 0.322774
v 0.927290 -0.275510 0.322774
v 0.927290 -0.452054 -0.218791
v 0.927290 -0.222797 -0.218791
v 0.385725 -0.427051 0.322774
v 0.385725 -0.275510 0.322774
v 0.385725 -0.460747 -0.011946
v 0.385725 -0.284174 -0.012503
v 0.927290 -0.222797 -0.218791
v 0.335325 -0.348731 -0.180333
v 0.385725 -0.452054 -0.218791
v 0.385725 -0.222797 -0.218791
v 0.656507 -0.452054 -0.218791
v 0.656507 -0.222797 -0.218791
v 0.791899 -0.452054 -0.218791
v 0.521116 -0.222797 -0.218791
v 0.300924 -0.275510 0.322774
v 0.521116 -0.452054 -0.218791
v 0.791899 -0.222797 -0.218791
v 0.300924 -0.427051 0.322774
v 0.234094 -0.460747 -0.011946
v 0.234094 -0.284174 -0.012503
v 0.749901 -0.398825 -0.387226
v 0.883221 -0.396755 -0.387226
v 0.478675 -0.292169 -0.387226
v 0.428166 -0.292169 -0.387226
v 0.478675 -0.398382 -0.387226
v 0.615086 -0.399402 -0.387226
v 0.749901 -0.291726 -0.387226
v 0.615086 -0.291149 -0.387226
v 0.883221 -0.293797 -0.387226
v 0.428166 -0.398382 -0.387226
v 0.335325 -0.397137 -0.180100
v 0.284494 -0.348731 -0.180333
v 0.284494 -0.397137 -0.180100
v 0.562537 -0.291149 -0.387226
v 0.385725 -0.249728 -0.375523
v 0.385725 -0.440823 -0.375523
v 0.562537 -0.399402 -0.387226
v 0.521116 -0.440823 -0.375523
v 0.698505 -0.398825 -0.387226
v 0.698505 -0.291726 -0.387226
v 0.521116 -0.249728 -0.375523
v 0.656507 -0.440823 -0.375523
v 0.835967 -0.396755 -0.387226
v 0.835967 -0.293797 -0.387226
v 0.656507 -0.249728 -0.375523
v 0.927290 -0.249728 -0.375523
v 0.927290 -0.440823 -0.375523
v 0.791899 -0.440823 -0.375523
v 0.791899 -0.249728 -0.375523
v 0.462555 -0.388483 -0.539097
v 0.444286 -0.388483 -0.539097
v 0.444286 -0.424720 -0.539097
v 0.462555 -0.424720 -0.539097
v 0.579466 -0.425068 -0.539097
v 0.598158 -0.425068 -0.539097
v 0.598158 -0.388135 -0.539097
v 0.579466 -0.388135 -0.539097
v 0.714179 -0.424871 -0.539097
v 0.734227 -0.424871 -0.539097
v 0.734227 -0.388332 -0.539097
v 0.714179 -0.388332 -0.539097
v 0.869332 -0.389039 -0.539097
v 0.869332 -0.424165 -0.539097
v 0.849856 -0.424165 -0.539097
v 0.849856 -0.389039 -0.539097
v 0.250856 -0.315093 -0.162546
v 0.250856 -0.430775 -0.161989
v 0.368963 -0.430775 -0.161989
v 0.368963 -0.315093 -0.162546
v 0.300701 -0.422815 -0.296677
v 0.300701 -0.446826 -0.296444
v 0.319118 -0.446826 -0.296444
v 0.319118 -0.422815 -0.296677
vn 1.0000 0.0000 0.0000
vn 0.0000 0.0000 1.0000
vn 0.0000 0.9997 -0.0258
vn 0.0282 -0.9968 0.0743
vn -1.0000 0.0000 0.0000
vn 0.0000 -0.9991 -0.0420
vn 0.0000 -0.9806 -0.1959
vn -0.9807 0.0003 0.1956
vn 0.0000 -0.9950 0.1002
vn 0.0000 0.9856 -0.1694
vn 0.0000 -0.9856 0.1690
vn -0.0379 0.9946 0.0968
vn 0.0000 -0.9974 -0.0715
vn 0.0000 -0.9853 0.1709
vn 0.0000 -0.9860 0.1666
vn 0.0000 0.8445 -0.5356
vn 0.0000 0.8435 -0.5371
vn -0.9938 -0.0004 -0.1110
vn 0.0000 0.9794 -0.2018
vn 0.9938 -0.0004 -0.1110
vn 0.0000 0.2658 -0.9640
vn 0.0000 -0.2658 -0.9640
vn -0.2658 0.0000 -0.9640
vn 0.2658 0.0000 -0.9640
vn 0.0000 -0.2719 -0.9623
vn 0.0000 0.2719 -0.9623
vn 0.2719 0.0000 -0.9623
vn -0.2719 0.0000 -0.9623
vn 0.0000 -0.2684 -0.9633
vn 0.0000 0.2684 -0.9633
vn -0.2684 0.0000 -0.9633
vn 0.2684 0.0000 -0.9633
vn 0.2567 0.0000 -0.9665
vn 0.0000 -0.2567 -0.9665
vn 0.0000 0.2567 -0.9665
vn -0.2567 0.0000 -0.9665
vn 0.0000 0.0000 -1.0000
vn 0.0000 0.8428 -0.5382
vn 0.9958 0.0000 -0.0911
vn -0.9944 0.0000 -0.1056
vn 0.0000 0.8438 -0.5367
vn 0.9938 0.0000 -0.1108
vn 0.0000 -0.9841 0.1776
vn 0.9944 0.0000 -0.1056
vn -0.9947 0.0000 -0.1027
vn -0.9938 0.0000 -0.1108
vn 0.0000 0.8472 -0.5313
vn 0.9947 0.0000 -0.1027
vn -0.9958 0.0000 -0.0911
vn -0.4708 -0.0043 -0.8823
vn 0.0000 -0.4741 -0.8805
vn 0.0000 0.4674 -0.8840
vn 0.4708 -0.0043 -0.8823
vn 0.0000 -0.0097 -1.0000
vn -0.9905 -0.0009 -0.1375
vn 0.9905 -0.0009 -0.1375
vn 0.0000 -0.9196 0.3928
usemtl None
s off
f 3//1 5//1 6//1 4//1
f 5//2 11//2 6//2
f 10//3 24//3 19//3 8//3
f 7//2 3//2 4//2 8//2
f 5//4 3//4 7//4 9//4
f 10//5 14//5 13//5 9//5
f 9//6 13//6 20//6 15//6 17//6 5//6
f 5//1 51//1 50//1 11//1
f 23//7 71//7 72//7 9//7
f 14//5 39//5 40//5 13//5
f 8//2 19//2 22//2 7//2
f 23//8 22//8 19//8 24//8
f 7//9 22//9 23//9 9//9
f 11//10 50//10 53//10 21//10
f 21//10 53//10 49//10 16//10
f 43//11 62//11 63//11 25//11
f 16//10 49//10 45//10 18//10
f 18//10 45//10 39//10 14//10
f 4//12 6//12 14//12 10//12 8//12
f 20//13 13//13 40//13 42//13
f 15//13 20//13 42//13 46//13
f 17//13 15//13 46//13 52//13
f 5//13 17//13 52//13 51//13
f 34//14 56//14 57//14 29//14
f 41//15 58//15 59//15 30//15
f 27//16 54//16 55//16 28//16
f 12//17 77//17 74//17 36//17
f 24//18 70//18 71//18 23//18
f 10//19 73//19 70//19 24//19
f 9//20 72//20 73//20 10//20
f 28//21 39//21 45//21 27//21
f 29//22 42//22 40//22 34//22
f 34//23 40//23 39//23 28//23
f 27//24 45//24 42//24 29//24
f 30//25 46//25 42//25 41//25
f 38//26 45//26 49//26 32//26
f 32//27 49//27 46//27 30//27
f 41//28 42//28 45//28 38//28
f 25//29 52//29 46//29 43//29
f 44//30 49//30 53//30 31//30
f 43//31 46//31 49//31 44//31
f 31//32 53//32 52//32 25//32
f 33//33 50//33 51//33 26//33
f 26//34 51//34 52//34 47//34
f 48//35 53//35 50//35 33//35
f 47//36 52//36 53//36 48//36
f 54//37 57//37 56//37 55//37
f 58//37 61//37 60//37 59//37
f 62//37 65//37 64//37 63//37
f 67//37 68//37 69//37 66//37
f 32//38 60//38 61//38 38//38
f 26//39 67//39 66//39 33//39
f 28//40 55//40 56//40 34//40
f 31//41 64//41 65//41 44//41
f 30//42 59//42 60//42 32//42
f 47//43 68//43 67//43 26//43
f 29//44 57//44 54//44 27//44
f 44//45 65//45 62//45 43//45
f 38//46 61//46 58//46 41//46
f 33//47 66//47 69//47 48//47
f 25//48 63//48 64//48 31//48
f 48//49 69//49 68//49 47//49
f 37//50 71//50 70//50 36//50
f 35//51 72//51 71//51 37//51
f 36//52 70//52 73//52 12//52
f 12//53 73//53 72//53 35//53
f 76//54 75//54 74//54 77//54
f 36//55 74//55 75//55 37//55
f 35//56 76//56 77//56 12//56
f 37//57 75//57 76//57 35//57
