# Blender v2.79 (sub 0) OBJ File: 'dagger.blend'
# www.blender.org
mtllib dagger.mtl
o Plane
v 0.505843 -0.638660 -0.950282
v 0.441439 -0.608755 -0.950282
v 0.535748 -0.574256 -0.950282
v 0.471344 -0.544351 -0.950282
v 0.536398 -0.613702 -0.950282
v 0.466397 -0.639310 -0.950282
v 0.440789 -0.569309 -0.950282
v 0.510790 -0.543701 -0.950282
v 0.509999 -0.650020 -1.347596
v 0.430079 -0.612911 -1.347596
v 0.547108 -0.570100 -1.347596
v 0.467188 -0.532991 -1.347596
v 0.529686 -0.610586 -1.347596
v 0.461049 -0.650826 -1.347596
v 0.447500 -0.572425 -1.347596
v 0.516138 -0.532185 -1.347596
v 0.402735 -0.839683 -1.347596
v 0.354401 -0.817240 -1.347596
v 0.622786 -0.365771 -1.347596
v 0.574451 -0.343328 -1.347596
v 0.475818 -0.673795 -1.398541
v 0.402735 -0.839683 -1.398541
v 0.433972 -0.654365 -1.398541
v 0.354401 -0.817240 -1.398541
v 0.543215 -0.528646 -1.398541
v 0.622786 -0.365771 -1.398541
v 0.501368 -0.509216 -1.398541
v 0.574451 -0.343328 -1.398541
v 0.488593 -0.591505 -1.941207
vn -0.9787 0.2054 0.0038
vn 0.9787 -0.2054 0.0038
vn -0.7884 0.6152 0.0038
vn 0.7884 -0.6152 0.0038
vn -0.0165 0.9995 0.0287
vn 0.0165 -0.9995 0.0287
vn 0.7742 0.6323 0.0287
vn -0.7742 -0.6323 0.0287
vn -0.0000 0.0000 1.0000
vn 0.0000 0.0000 -1.0000
vn 0.9043 -0.3823 -0.1901
vn 0.8756 -0.4441 -0.1901
vn -0.3441 -0.7410 -0.5767
vn -0.4211 -0.9070 0.0000
vn -0.8756 0.4441 -0.1901
vn -0.9043 0.3823 -0.1901
vn 0.3441 0.7410 -0.5767
vn 0.4211 0.9070 0.0000
vn 0.4166 0.8973 -0.1459
vn -0.4166 -0.8973 -0.1459
vn 0.9755 -0.2072 -0.0742
vn 0.7877 -0.6115 -0.0742
vn -0.9755 0.2072 -0.0742
vn -0.7877 0.6115 -0.0742
vn -0.8553 0.3680 -0.3648
vn -0.8330 0.4159 -0.3648
vn 0.8553 -0.3680 -0.3648
vn 0.8330 -0.4159 -0.3648
usemtl None
s off
f 2//1 7//1 15//1 10//1
f 3//2 5//2 13//2 11//2
f 7//3 4//3 12//3 15//3
f 5//4 1//4 9//4 13//4
f 4//5 8//5 16//5 12//5
f 1//6 6//6 14//6 9//6
f 8//7 3//7 11//7 16//7
f 6//8 2//8 10//8 14//8
f 5//9 3//9 8//9 4//9 7//9 2//9 6//9 1//9
f 17//9 9//9 10//9 18//9
f 19//9 20//9 12//9 11//9
f 22//10 24//10 23//10 21//10
f 26//10 25//10 27//10 28//10
f 11//11 25//11 26//11 19//11
f 17//12 22//12 21//12 9//12
f 12//13 27//13 25//13 11//13
f 18//14 24//14 22//14 17//14
f 20//15 28//15 27//15 12//15
f 10//16 23//16 24//16 18//16
f 9//17 21//17 23//17 10//17
f 19//18 26//18 28//18 20//18
f 25//19 29//19 27//19
f 23//20 29//20 21//20
f 25//21 13//21 29//21
f 13//22 21//22 29//22
f 29//23 23//23 15//23
f 29//24 15//24 27//24
f 15//25 23//25 10//25
f 15//26 12//26 27//26
f 13//27 25//27 11//27
f 9//28 21//28 13//28
