# Blender v2.79 (sub 0) OBJ File: 'spear.blend'
# www.blender.org
mtllib spear.mtl
o Plane
v -0.021023 0.021023 1.153474
v 0.021023 0.021023 1.153474
v -0.021023 -0.021023 1.153474
v 0.021023 -0.021023 1.153474
v -0.031535 0.000000 1.153474
v 0.000000 0.031535 1.153474
v 0.031535 0.000000 1.153474
v 0.000000 -0.031534 1.153474
v -0.007965 0.007965 -1.261191
v 0.007965 0.007965 -1.261191
v -0.007965 -0.007965 -1.261191
v 0.007965 -0.007965 -1.261191
v -0.011947 -0.000000 -1.261191
v 0.000000 0.011947 -1.261191
v 0.011947 -0.000000 -1.261191
v 0.000000 -0.011948 -1.261191
v -0.010512 0.010512 1.209629
v 0.010512 0.010512 1.209629
v -0.010512 -0.010511 1.209629
v 0.010512 -0.010511 1.209629
v -0.015767 0.000000 1.209629
v 0.000000 0.015767 1.209629
v 0.015767 0.000000 1.209629
v 0.000000 -0.015767 1.209629
v -0.031535 -0.000000 -1.261191
v -0.021023 0.021023 -1.261191
v 0.000000 0.031534 -1.261191
v 0.021023 0.021023 -1.261191
v 0.031535 -0.000000 -1.261191
v 0.021023 -0.021023 -1.261191
v 0.000000 -0.031535 -1.261191
v -0.021023 -0.021023 -1.261191
v -0.015930 0.006372 -1.289269
v 0.015930 0.006372 -1.289269
v -0.015930 -0.006372 -1.289269
v 0.015930 -0.006372 -1.289269
v -0.023895 -0.000000 -1.289269
v 0.000000 0.009558 -1.289269
v 0.023895 -0.000000 -1.289269
v 0.000000 -0.009558 -1.289269
v -0.022302 0.008921 -1.373501
v 0.022302 0.008921 -1.373501
v -0.022302 -0.008921 -1.373501
v 0.022302 -0.008921 -1.373501
v -0.023417 0.000000 -1.457734
v 0.000000 0.013381 -1.373501
v 0.023417 0.000000 -1.457734
v 0.000000 -0.013381 -1.373501
v 0.000000 0.000000 -1.541966
vn 0.4472 -0.8944 0.0000
vn -0.4472 0.8944 -0.0000
vn -0.4472 -0.8944 0.0000
vn 0.4472 0.8944 -0.0000
vn 0.8944 0.4472 -0.0000
vn -0.8944 -0.4472 0.0000
vn 0.8944 -0.4472 0.0000
vn -0.8944 0.4472 -0.0000
vn 0.4337 -0.8675 0.2436
vn -0.4337 0.8675 0.2436
vn -0.4337 -0.8675 0.2436
vn 0.4337 0.8675 0.2436
vn 0.8675 0.4337 0.2436
vn -0.8675 -0.4337 0.2436
vn 0.8675 -0.4337 0.2436
vn -0.8675 0.4337 0.2436
vn 0.0000 0.0000 1.0000
vn 0.7445 -0.6204 0.2464
vn 0.0000 0.0000 -1.0000
vn 0.9148 0.4032 0.0254
vn -0.7445 0.6204 0.2464
vn 0.2872 -0.9575 -0.0272
vn -0.2872 0.9575 -0.0272
vn -0.2872 -0.9575 -0.0272
vn 0.2872 0.9575 -0.0272
vn 0.7445 0.6204 0.2464
vn -0.7445 -0.6204 0.2464
vn -0.1955 -0.9776 -0.0777
vn -0.9148 -0.4032 0.0254
vn 0.9148 -0.4032 0.0254
vn -0.9148 0.4032 0.0254
vn 0.1959 -0.9796 0.0445
vn -0.1959 0.9796 0.0445
vn -0.1959 -0.9796 0.0445
vn 0.1959 0.9796 0.0445
vn 0.1955 0.9776 -0.0777
vn 0.3402 0.9356 -0.0946
vn -0.3402 -0.9356 -0.0946
vn 0.3402 -0.9356 -0.0946
vn -0.3402 0.9356 -0.0946
vn 0.1955 -0.9776 -0.0777
vn -0.1955 0.9776 -0.0777
usemtl None
s off
f 4//1 8//1 31//1 30//1
f 1//2 6//2 27//2 26//2
f 8//3 3//3 32//3 31//3
f 6//4 2//4 28//4 27//4
f 2//5 7//5 29//5 28//5
f 3//6 5//6 25//6 32//6
f 7//7 4//7 30//7 29//7
f 5//8 1//8 26//8 25//8
f 8//9 4//9 20//9 24//9
f 6//10 1//10 17//10 22//10
f 3//11 8//11 24//11 19//11
f 2//12 6//12 22//12 18//12
f 7//13 2//13 18//13 23//13
f 5//14 3//14 19//14 21//14
f 4//15 7//15 23//15 20//15
f 1//16 5//16 21//16 17//16
f 21//17 19//17 24//17 20//17 23//17 18//17 22//17 17//17
f 15//18 12//18 36//18 39//18
f 9//19 13//19 25//19 26//19
f 10//19 14//19 27//19 28//19
f 12//19 15//19 29//19 30//19
f 11//19 16//19 31//19 32//19
f 13//19 11//19 32//19 25//19
f 14//19 9//19 26//19 27//19
f 15//19 10//19 28//19 29//19
f 16//19 12//19 30//19 31//19
f 34//20 39//20 47//20 42//20
f 13//21 9//21 33//21 37//21
f 12//22 16//22 40//22 36//22
f 9//23 14//23 38//23 33//23
f 16//24 11//24 35//24 40//24
f 14//25 10//25 34//25 38//25
f 10//26 15//26 39//26 34//26
f 11//27 13//27 37//27 35//27
f 48//28 43//28 49//28
f 35//29 37//29 45//29 43//29
f 39//30 36//30 44//30 47//30
f 37//31 33//31 41//31 45//31
f 36//32 40//32 48//32 44//32
f 33//33 38//33 46//33 41//33
f 40//34 35//34 43//34 48//34
f 38//35 34//35 42//35 46//35
f 46//36 42//36 49//36
f 42//37 47//37 49//37
f 43//38 45//38 49//38
f 47//39 44//39 49//39
f 45//40 41//40 49//40
f 44//41 48//41 49//41
f 41//42 46//42 49//42
